<svg width="49" height="49" viewBox="0 0 49 49" fill="none" xmlns="http://www.w3.org/2000/svg">
<path d="M14.7 39.2C12.005 39.2 9.8245 41.405 9.8245 44.1C9.8245 46.795 12.005 49 14.7 49C17.395 49 19.6 46.795 19.6 44.1C19.6 41.405 17.395 39.2 14.7 39.2ZM0 0V4.9H4.9L13.72 23.4955L10.4125 29.498C10.0205 30.184 9.8 30.9925 9.8 31.85C9.8 34.545 12.005 36.75 14.7 36.75H44.1V31.85H15.729C15.386 31.85 15.1165 31.5805 15.1165 31.2375L15.19 30.9435L17.395 26.95H35.6475C37.485 26.95 39.102 25.9455 39.935 24.4265L48.706 8.526C48.902 8.183 49 7.7665 49 7.35C49 6.0025 47.8975 4.9 46.55 4.9H10.3145L8.0115 0H0ZM39.2 39.2C36.505 39.2 34.3245 41.405 34.3245 44.1C34.3245 46.795 36.505 49 39.2 49C41.895 49 44.1 46.795 44.1 44.1C44.1 41.405 41.895 39.2 39.2 39.2Z" fill="#F1F0EA"/>
</svg>
