<svg width="59" height="59" viewBox="0 0 59 59" fill="none" xmlns="http://www.w3.org/2000/svg">
<rect x="1" y="1" width="57" height="57" rx="4" stroke="#212121" stroke-width="2"/>
<path d="M29.8991 26.0409V33.5464H40.8097C39.383 38.0937 35.5057 41.3486 29.8991 41.3486C23.2225 41.3486 17.8102 36.043 17.8102 29.5C17.8102 22.957 23.2225 17.6514 29.8991 17.6514C32.9008 17.6514 35.6419 18.7298 37.7559 20.5055L43.3946 14.978C39.8339 11.7979 35.0969 9.85714 29.8991 9.85714C18.8301 9.85714 9.85718 18.6512 9.85718 29.5C9.85718 40.3487 18.8301 49.1429 29.8991 49.1429C46.7229 49.1429 50.4359 33.7232 48.7868 26.0664L29.8991 26.0409Z" fill="#212121"/>
</svg>
