<svg width="533" height="177" viewBox="0 0 533 177" fill="none" xmlns="http://www.w3.org/2000/svg">
<path d="M392.82 157H398.82V159H395.02V162.7H398.04V164.7H395.02V169H398.82V171H392.82V157ZM402.985 171.2C401.918 171.2 401.111 170.9 400.565 170.3C400.018 169.687 399.745 168.813 399.745 167.68V166.88H401.825V167.84C401.825 168.747 402.205 169.2 402.965 169.2C403.338 169.2 403.618 169.093 403.805 168.88C404.005 168.653 404.105 168.293 404.105 167.8C404.105 167.213 403.971 166.7 403.705 166.26C403.438 165.807 402.945 165.267 402.225 164.64C401.318 163.84 400.685 163.12 400.325 162.48C399.965 161.827 399.785 161.093 399.785 160.28C399.785 159.173 400.065 158.32 400.625 157.72C401.185 157.107 401.998 156.8 403.065 156.8C404.118 156.8 404.911 157.107 405.445 157.72C405.991 158.32 406.265 159.187 406.265 160.32V160.9H404.185V160.18C404.185 159.7 404.091 159.353 403.905 159.14C403.718 158.913 403.445 158.8 403.085 158.8C402.351 158.8 401.985 159.247 401.985 160.14C401.985 160.647 402.118 161.12 402.385 161.56C402.665 162 403.165 162.533 403.885 163.16C404.805 163.96 405.438 164.687 405.785 165.34C406.131 165.993 406.305 166.76 406.305 167.64C406.305 168.787 406.018 169.667 405.445 170.28C404.885 170.893 404.065 171.2 402.985 171.2ZM414.046 172.3C413.046 172.3 412.433 171.853 412.206 170.96C411.793 171.12 411.306 171.2 410.746 171.2C409.666 171.2 408.839 170.893 408.266 170.28C407.693 169.667 407.406 168.8 407.406 167.68V160.32C407.406 159.2 407.693 158.333 408.266 157.72C408.839 157.107 409.666 156.8 410.746 156.8C411.826 156.8 412.653 157.107 413.226 157.72C413.799 158.333 414.086 159.2 414.086 160.32V167.68C414.086 168.613 413.879 169.38 413.466 169.98C413.546 170.113 413.646 170.2 413.766 170.24C413.886 170.28 414.059 170.3 414.286 170.3H414.626V172.3H414.046ZM410.746 169.2C411.506 169.2 411.886 168.74 411.886 167.82V160.18C411.886 159.26 411.506 158.8 410.746 158.8C409.986 158.8 409.606 159.26 409.606 160.18V167.82C409.606 168.74 409.986 169.2 410.746 169.2ZM418.774 171.2C417.707 171.2 416.894 170.9 416.334 170.3C415.774 169.687 415.494 168.813 415.494 167.68V157H417.694V167.84C417.694 168.32 417.787 168.667 417.974 168.88C418.174 169.093 418.454 169.2 418.814 169.2C419.174 169.2 419.447 169.093 419.634 168.88C419.834 168.667 419.934 168.32 419.934 167.84V157H422.054V167.68C422.054 168.813 421.774 169.687 421.214 170.3C420.654 170.9 419.841 171.2 418.774 171.2ZM423.621 157H429.621V159H425.821V162.7H428.841V164.7H425.821V169H429.621V171H423.621V157ZM433.986 171.2C432.933 171.2 432.126 170.9 431.566 170.3C431.02 169.7 430.746 168.853 430.746 167.76V160.24C430.746 159.147 431.02 158.3 431.566 157.7C432.126 157.1 432.933 156.8 433.986 156.8C435.04 156.8 435.84 157.1 436.386 157.7C436.946 158.3 437.226 159.147 437.226 160.24V161.72H435.146V160.1C435.146 159.233 434.78 158.8 434.046 158.8C433.313 158.8 432.946 159.233 432.946 160.1V167.92C432.946 168.773 433.313 169.2 434.046 169.2C434.78 169.2 435.146 168.773 435.146 167.92V165.78H437.226V167.76C437.226 168.853 436.946 169.7 436.386 170.3C435.84 170.9 435.04 171.2 433.986 171.2ZM438.543 157H440.743V171H438.543V157ZM445.593 157H448.733L450.133 167.02H450.173L451.573 157H454.713V171H452.633V160.4H452.593L450.993 171H449.153L447.553 160.4H447.513V171H445.593V157ZM456.355 157H458.555V171H456.355V157ZM460.203 157H462.963L465.103 165.38H465.143V157H467.103V171H464.843L462.203 160.78H462.163V171H460.203V157ZM468.738 157H470.938V162.7H473.298V157H475.498V171H473.298V164.7H470.938V171H468.738V157ZM478.836 157H481.816L484.096 171H481.896L481.496 168.22V168.26H478.996L478.596 171H476.556L478.836 157ZM481.236 166.36L480.256 159.44H480.216L479.256 166.36H481.236ZM491.227 171.2C490.16 171.2 489.354 170.9 488.807 170.3C488.26 169.687 487.987 168.813 487.987 167.68V166.88H490.067V167.84C490.067 168.747 490.447 169.2 491.207 169.2C491.58 169.2 491.86 169.093 492.047 168.88C492.247 168.653 492.347 168.293 492.347 167.8C492.347 167.213 492.214 166.7 491.947 166.26C491.68 165.807 491.187 165.267 490.467 164.64C489.56 163.84 488.927 163.12 488.567 162.48C488.207 161.827 488.027 161.093 488.027 160.28C488.027 159.173 488.307 158.32 488.867 157.72C489.427 157.107 490.24 156.8 491.307 156.8C492.36 156.8 493.154 157.107 493.687 157.72C494.234 158.32 494.507 159.187 494.507 160.32V160.9H492.427V160.18C492.427 159.7 492.334 159.353 492.147 159.14C491.96 158.913 491.687 158.8 491.327 158.8C490.594 158.8 490.227 159.247 490.227 160.14C490.227 160.647 490.36 161.12 490.627 161.56C490.907 162 491.407 162.533 492.127 163.16C493.047 163.96 493.68 164.687 494.027 165.34C494.374 165.993 494.547 166.76 494.547 167.64C494.547 168.787 494.26 169.667 493.687 170.28C493.127 170.893 492.307 171.2 491.227 171.2ZM495.808 157H501.808V159H498.008V162.7H501.028V164.7H498.008V169H501.808V171H495.808V157ZM503.074 157H505.834L507.974 165.38H508.014V157H509.974V171H507.714L505.074 160.78H505.034V171H503.074V157ZM511.609 157H513.809V162.7H516.169V157H518.369V171H516.169V164.7H513.809V171H511.609V157ZM521.708 157H524.688L526.968 171H524.768L524.368 168.22V168.26H521.868L521.468 171H519.428L521.708 157ZM524.108 166.36L523.128 159.44H523.088L522.127 166.36H524.108Z" fill="#212121"/>
<rect x="1.5" y="1.5" width="530" height="63" rx="6.5" fill="#D9D9D9"/>
<rect x="1.5" y="1.5" width="530" height="63" rx="6.5" stroke="#212121" stroke-width="3"/>
<path d="M19.83 37.105C18.98 38.135 17.925 38.65 16.665 38.65C16.075 38.65 15.54 38.555 15.06 38.365C14.58 38.165 14.165 37.89 13.815 37.54C13.475 37.18 13.21 36.755 13.02 36.265C12.83 35.765 12.735 35.215 12.735 34.615C12.735 34.005 12.835 33.44 13.035 32.92C13.235 32.4 13.515 31.955 13.875 31.585C14.245 31.215 14.68 30.925 15.18 30.715C15.69 30.505 16.245 30.4 16.845 30.4C17.815 30.4 18.565 30.665 19.095 31.195C19.625 31.715 19.89 32.465 19.89 33.445C19.89 33.585 19.86 33.67 19.8 33.7C19.75 33.73 19.625 33.745 19.425 33.745H14.49C14.47 33.825 14.455 33.925 14.445 34.045C14.435 34.155 14.43 34.28 14.43 34.42C14.43 34.94 14.49 35.415 14.61 35.845C14.74 36.265 14.92 36.625 15.15 36.925C15.39 37.225 15.67 37.46 15.99 37.63C16.32 37.79 16.685 37.87 17.085 37.87C17.505 37.87 17.895 37.78 18.255 37.6C18.615 37.41 18.985 37.105 19.365 36.685L19.83 37.105ZM17.355 33.055C17.555 33.055 17.715 33.05 17.835 33.04C17.955 33.03 18.045 33.01 18.105 32.98C18.165 32.95 18.205 32.91 18.225 32.86C18.245 32.8 18.255 32.725 18.255 32.635C18.255 32.175 18.105 31.81 17.805 31.54C17.515 31.26 17.115 31.12 16.605 31.12C15.525 31.12 14.855 31.765 14.595 33.055H17.355ZM23.9136 36.1C23.9136 36.52 23.9236 36.85 23.9436 37.09C23.9636 37.33 24.0136 37.515 24.0936 37.645C24.1836 37.765 24.3086 37.845 24.4686 37.885C24.6286 37.925 24.8536 37.955 25.1436 37.975V38.5H21.1536V37.975C21.4436 37.955 21.6736 37.925 21.8436 37.885C22.0136 37.845 22.1436 37.765 22.2336 37.645C22.3236 37.525 22.3786 37.355 22.3986 37.135C22.4286 36.905 22.4436 36.6 22.4436 36.22V34.3C22.4436 33.73 22.4336 33.255 22.4136 32.875C22.4036 32.495 22.3786 32.235 22.3386 32.095C22.3086 31.965 22.2736 31.865 22.2336 31.795C22.1936 31.715 22.1286 31.655 22.0386 31.615C21.9486 31.565 21.8286 31.535 21.6786 31.525C21.5386 31.505 21.3536 31.495 21.1236 31.495V30.97L23.5686 30.4L23.7636 31.9H23.8386C24.2886 31.39 24.7586 31.015 25.2486 30.775C25.7486 30.525 26.2986 30.4 26.8986 30.4C27.5286 30.4 28.0586 30.53 28.4886 30.79C28.9186 31.04 29.2186 31.405 29.3886 31.885H29.4486C29.8186 31.415 30.2686 31.05 30.7986 30.79C31.3286 30.53 31.8936 30.4 32.4936 30.4C32.9636 30.4 33.3886 30.48 33.7686 30.64C34.1586 30.79 34.4536 31 34.6536 31.27C34.8336 31.5 34.9586 31.805 35.0286 32.185C35.1086 32.555 35.1486 33.065 35.1486 33.715V36.1C35.1486 36.51 35.1586 36.835 35.1786 37.075C35.2086 37.315 35.2636 37.5 35.3436 37.63C35.4236 37.76 35.5436 37.845 35.7036 37.885C35.8736 37.925 36.1036 37.955 36.3936 37.975V38.5H32.4036V37.975C32.6836 37.965 32.9086 37.94 33.0786 37.9C33.2486 37.85 33.3786 37.765 33.4686 37.645C33.5586 37.515 33.6136 37.34 33.6336 37.12C33.6636 36.9 33.6786 36.6 33.6786 36.22V34.33C33.6786 33.76 33.6486 33.28 33.5886 32.89C33.5286 32.49 33.4286 32.17 33.2886 31.93C33.1486 31.68 32.9636 31.5 32.7336 31.39C32.5136 31.28 32.2436 31.225 31.9236 31.225C31.4836 31.225 31.0686 31.35 30.6786 31.6C30.2986 31.84 29.9986 32.165 29.7786 32.575C29.7286 32.675 29.6836 32.775 29.6436 32.875C29.6136 32.965 29.5886 33.07 29.5686 33.19C29.5486 33.3 29.5336 33.435 29.5236 33.595C29.5236 33.755 29.5236 33.955 29.5236 34.195V36.1C29.5236 36.51 29.5336 36.835 29.5536 37.075C29.5736 37.315 29.6236 37.5 29.7036 37.63C29.7936 37.76 29.9236 37.845 30.0936 37.885C30.2636 37.925 30.4936 37.955 30.7836 37.975V38.5H26.7936V37.975C27.0736 37.955 27.2986 37.925 27.4686 37.885C27.6386 37.845 27.7636 37.765 27.8436 37.645C27.9336 37.525 27.9886 37.355 28.0086 37.135C28.0386 36.905 28.0536 36.6 28.0536 36.22V34.33C28.0536 33.75 28.0236 33.265 27.9636 32.875C27.9036 32.475 27.8036 32.155 27.6636 31.915C27.5336 31.665 27.3586 31.49 27.1386 31.39C26.9186 31.28 26.6486 31.225 26.3286 31.225C25.8786 31.225 25.4536 31.35 25.0536 31.6C24.6636 31.84 24.3686 32.165 24.1686 32.575C24.1186 32.675 24.0736 32.775 24.0336 32.875C24.0036 32.965 23.9786 33.07 23.9586 33.19C23.9386 33.3 23.9236 33.435 23.9136 33.595C23.9136 33.755 23.9136 33.955 23.9136 34.195V36.1ZM41.9323 34.06C41.3623 34.28 40.8773 34.495 40.4773 34.705C40.0873 34.915 39.7723 35.125 39.5323 35.335C39.2923 35.545 39.1173 35.755 39.0073 35.965C38.9073 36.175 38.8573 36.39 38.8573 36.61C38.8573 36.94 38.9673 37.21 39.1873 37.42C39.4073 37.63 39.6973 37.735 40.0573 37.735C40.3173 37.735 40.5573 37.67 40.7773 37.54C41.0073 37.41 41.2073 37.235 41.3773 37.015C41.5473 36.785 41.6823 36.52 41.7823 36.22C41.8823 35.91 41.9323 35.585 41.9323 35.245V34.06ZM41.9323 33.415V32.8C41.9323 31.58 41.4123 30.97 40.3723 30.97C40.2023 30.97 40.0573 30.985 39.9373 31.015C39.8173 31.045 39.7173 31.095 39.6373 31.165C39.5573 31.235 39.4823 31.335 39.4123 31.465C39.3523 31.595 39.2923 31.755 39.2323 31.945C39.1223 32.235 39.0123 32.43 38.9023 32.53C38.8023 32.62 38.6523 32.665 38.4523 32.665C37.9523 32.665 37.7023 32.415 37.7023 31.915C37.7023 31.435 37.9573 31.065 38.4673 30.805C38.9773 30.535 39.7023 30.4 40.6423 30.4C41.6423 30.4 42.3523 30.58 42.7723 30.94C43.1923 31.29 43.4023 31.89 43.4023 32.74V36.1C43.4023 37.24 43.6273 37.81 44.0773 37.81C44.2173 37.81 44.3523 37.795 44.4823 37.765C44.6123 37.725 44.7223 37.63 44.8123 37.48L45.0223 37.84C44.9023 38.07 44.6823 38.265 44.3623 38.425C44.0423 38.575 43.7073 38.65 43.3573 38.65C42.9173 38.65 42.5873 38.51 42.3673 38.23C42.1573 37.95 42.0523 37.555 42.0523 37.045H41.9773C41.7173 37.535 41.3573 37.925 40.8973 38.215C40.4373 38.495 39.9273 38.635 39.3673 38.635C38.7373 38.635 38.2423 38.475 37.8823 38.155C37.5223 37.835 37.3423 37.405 37.3423 36.865C37.3423 36.625 37.3823 36.395 37.4623 36.175C37.5523 35.955 37.6923 35.745 37.8823 35.545C38.0723 35.345 38.3223 35.15 38.6323 34.96C38.9423 34.76 39.3223 34.56 39.7723 34.36L41.9323 33.415ZM48.4229 36.115C48.4229 36.505 48.4379 36.82 48.4679 37.06C48.5079 37.29 48.5779 37.475 48.6779 37.615C48.7779 37.745 48.9179 37.835 49.0979 37.885C49.2779 37.935 49.5179 37.965 49.8179 37.975V38.5H45.5129V37.975C45.8129 37.965 46.0579 37.935 46.2479 37.885C46.4379 37.825 46.5829 37.735 46.6829 37.615C46.7929 37.485 46.8629 37.31 46.8929 37.09C46.9329 36.86 46.9529 36.57 46.9529 36.22V34.3C46.9529 33.72 46.9429 33.245 46.9229 32.875C46.9129 32.495 46.8879 32.235 46.8479 32.095C46.7979 31.865 46.6829 31.71 46.5029 31.63C46.3229 31.54 45.9829 31.495 45.4829 31.495V30.97L48.4229 30.4V36.115ZM46.6979 27.355C46.6979 27.095 46.7879 26.875 46.9679 26.695C47.1479 26.515 47.3679 26.425 47.6279 26.425C47.8879 26.425 48.1079 26.515 48.2879 26.695C48.4679 26.875 48.5579 27.095 48.5579 27.355C48.5579 27.615 48.4679 27.835 48.2879 28.015C48.1079 28.195 47.8879 28.285 47.6279 28.285C47.3679 28.285 47.1479 28.195 46.9679 28.015C46.7879 27.835 46.6979 27.615 46.6979 27.355ZM53.2502 36.16C53.2502 36.54 53.2652 36.845 53.2952 37.075C53.3252 37.305 53.3852 37.485 53.4752 37.615C53.5752 37.745 53.7102 37.835 53.8802 37.885C54.0602 37.935 54.2952 37.965 54.5852 37.975V38.5H50.4452V37.975C50.7452 37.965 50.9852 37.935 51.1652 37.885C51.3452 37.825 51.4852 37.735 51.5852 37.615C51.6952 37.495 51.7652 37.33 51.7952 37.12C51.8352 36.9 51.8552 36.615 51.8552 36.265V29.8C51.8552 29.26 51.8452 28.81 51.8252 28.45C51.8152 28.08 51.7952 27.83 51.7652 27.7C51.7152 27.47 51.5952 27.315 51.4052 27.235C51.2252 27.155 50.8952 27.115 50.4152 27.115V26.605L53.2502 26.05V36.16ZM62.8232 37.105C61.9732 38.135 60.9182 38.65 59.6582 38.65C59.0682 38.65 58.5332 38.555 58.0532 38.365C57.5732 38.165 57.1582 37.89 56.8082 37.54C56.4682 37.18 56.2032 36.755 56.0132 36.265C55.8232 35.765 55.7282 35.215 55.7282 34.615C55.7282 34.005 55.8282 33.44 56.0282 32.92C56.2282 32.4 56.5082 31.955 56.8682 31.585C57.2382 31.215 57.6732 30.925 58.1732 30.715C58.6832 30.505 59.2382 30.4 59.8382 30.4C60.8082 30.4 61.5582 30.665 62.0882 31.195C62.6182 31.715 62.8832 32.465 62.8832 33.445C62.8832 33.585 62.8532 33.67 62.7932 33.7C62.7432 33.73 62.6182 33.745 62.4182 33.745H57.4832C57.4632 33.825 57.4482 33.925 57.4382 34.045C57.4282 34.155 57.4232 34.28 57.4232 34.42C57.4232 34.94 57.4832 35.415 57.6032 35.845C57.7332 36.265 57.9132 36.625 58.1432 36.925C58.3832 37.225 58.6632 37.46 58.9832 37.63C59.3132 37.79 59.6782 37.87 60.0782 37.87C60.4982 37.87 60.8882 37.78 61.2482 37.6C61.6082 37.41 61.9782 37.105 62.3582 36.685L62.8232 37.105ZM60.3482 33.055C60.5482 33.055 60.7082 33.05 60.8282 33.04C60.9482 33.03 61.0382 33.01 61.0982 32.98C61.1582 32.95 61.1982 32.91 61.2182 32.86C61.2382 32.8 61.2482 32.725 61.2482 32.635C61.2482 32.175 61.0982 31.81 60.7982 31.54C60.5082 31.26 60.1082 31.12 59.5982 31.12C58.5182 31.12 57.8482 31.765 57.5882 33.055H60.3482ZM69.3839 32.32C69.6239 32.02 69.7439 31.765 69.7439 31.555C69.7439 31.235 69.4489 31.075 68.8589 31.075V30.55H72.1439V31.075C71.9639 31.075 71.7989 31.095 71.6489 31.135C71.5089 31.175 71.3689 31.24 71.2289 31.33C71.0889 31.42 70.9439 31.545 70.7939 31.705C70.6539 31.855 70.4939 32.045 70.3139 32.275L68.7689 34.24L70.7639 36.865C71.0739 37.275 71.3589 37.565 71.6189 37.735C71.8889 37.895 72.1739 37.975 72.4739 37.975V38.5H68.4839V37.975C68.8439 37.975 69.0939 37.95 69.2339 37.9C69.3739 37.84 69.4439 37.73 69.4439 37.57C69.4439 37.5 69.3989 37.4 69.3089 37.27C69.2289 37.13 69.0889 36.93 68.8889 36.67L67.8389 35.32L66.5639 36.94C66.4139 37.12 66.3389 37.3 66.3389 37.48C66.3389 37.62 66.3989 37.74 66.5189 37.84C66.6389 37.93 66.8289 37.975 67.0889 37.975V38.5H63.6539V37.975C63.8839 37.975 64.0889 37.955 64.2689 37.915C64.4489 37.875 64.6189 37.805 64.7789 37.705C64.9489 37.605 65.1189 37.465 65.2889 37.285C65.4689 37.105 65.6689 36.88 65.8889 36.61L67.4189 34.735L65.4239 31.9C65.1939 31.58 64.9839 31.365 64.7939 31.255C64.6039 31.135 64.3639 31.075 64.0739 31.075V30.55H67.7639V31.075C67.4939 31.075 67.2989 31.11 67.1789 31.18C67.0589 31.24 66.9989 31.325 66.9989 31.435C66.9989 31.585 67.0939 31.795 67.2839 32.065L68.3639 33.64L69.3839 32.32ZM77.8795 34.06C77.3095 34.28 76.8245 34.495 76.4245 34.705C76.0345 34.915 75.7195 35.125 75.4795 35.335C75.2395 35.545 75.0645 35.755 74.9545 35.965C74.8545 36.175 74.8045 36.39 74.8045 36.61C74.8045 36.94 74.9145 37.21 75.1345 37.42C75.3545 37.63 75.6445 37.735 76.0045 37.735C76.2645 37.735 76.5045 37.67 76.7245 37.54C76.9545 37.41 77.1545 37.235 77.3245 37.015C77.4945 36.785 77.6295 36.52 77.7295 36.22C77.8295 35.91 77.8795 35.585 77.8795 35.245V34.06ZM77.8795 33.415V32.8C77.8795 31.58 77.3595 30.97 76.3195 30.97C76.1495 30.97 76.0045 30.985 75.8845 31.015C75.7645 31.045 75.6645 31.095 75.5845 31.165C75.5045 31.235 75.4295 31.335 75.3595 31.465C75.2995 31.595 75.2395 31.755 75.1795 31.945C75.0695 32.235 74.9595 32.43 74.8495 32.53C74.7495 32.62 74.5995 32.665 74.3995 32.665C73.8995 32.665 73.6495 32.415 73.6495 31.915C73.6495 31.435 73.9045 31.065 74.4145 30.805C74.9245 30.535 75.6495 30.4 76.5895 30.4C77.5895 30.4 78.2995 30.58 78.7195 30.94C79.1395 31.29 79.3495 31.89 79.3495 32.74V36.1C79.3495 37.24 79.5745 37.81 80.0245 37.81C80.1645 37.81 80.2995 37.795 80.4295 37.765C80.5595 37.725 80.6695 37.63 80.7595 37.48L80.9695 37.84C80.8495 38.07 80.6295 38.265 80.3095 38.425C79.9895 38.575 79.6545 38.65 79.3045 38.65C78.8645 38.65 78.5345 38.51 78.3145 38.23C78.1045 37.95 77.9995 37.555 77.9995 37.045H77.9245C77.6645 37.535 77.3045 37.925 76.8445 38.215C76.3845 38.495 75.8745 38.635 75.3145 38.635C74.6845 38.635 74.1895 38.475 73.8295 38.155C73.4695 37.835 73.2895 37.405 73.2895 36.865C73.2895 36.625 73.3295 36.395 73.4095 36.175C73.4995 35.955 73.6395 35.745 73.8295 35.545C74.0195 35.345 74.2695 35.15 74.5795 34.96C74.8895 34.76 75.2695 34.56 75.7195 34.36L77.8795 33.415ZM84.2652 36.1C84.2652 36.52 84.2752 36.85 84.2952 37.09C84.3152 37.33 84.3652 37.515 84.4452 37.645C84.5352 37.765 84.6602 37.845 84.8202 37.885C84.9802 37.925 85.2052 37.955 85.4952 37.975V38.5H81.5052V37.975C81.7952 37.955 82.0252 37.925 82.1952 37.885C82.3652 37.845 82.4952 37.765 82.5852 37.645C82.6752 37.525 82.7302 37.355 82.7502 37.135C82.7802 36.905 82.7952 36.6 82.7952 36.22V34.3C82.7952 33.73 82.7852 33.255 82.7652 32.875C82.7552 32.495 82.7302 32.235 82.6902 32.095C82.6602 31.965 82.6252 31.865 82.5852 31.795C82.5452 31.715 82.4802 31.655 82.3902 31.615C82.3002 31.565 82.1802 31.535 82.0302 31.525C81.8902 31.505 81.7052 31.495 81.4752 31.495V30.97L83.9202 30.4L84.1152 31.9H84.1902C84.6402 31.39 85.1102 31.015 85.6002 30.775C86.1002 30.525 86.6502 30.4 87.2502 30.4C87.8802 30.4 88.4102 30.53 88.8402 30.79C89.2702 31.04 89.5702 31.405 89.7402 31.885H89.8002C90.1702 31.415 90.6202 31.05 91.1502 30.79C91.6802 30.53 92.2452 30.4 92.8452 30.4C93.3152 30.4 93.7402 30.48 94.1202 30.64C94.5102 30.79 94.8052 31 95.0052 31.27C95.1852 31.5 95.3102 31.805 95.3802 32.185C95.4602 32.555 95.5002 33.065 95.5002 33.715V36.1C95.5002 36.51 95.5102 36.835 95.5302 37.075C95.5602 37.315 95.6152 37.5 95.6952 37.63C95.7752 37.76 95.8952 37.845 96.0552 37.885C96.2252 37.925 96.4552 37.955 96.7452 37.975V38.5H92.7552V37.975C93.0352 37.965 93.2602 37.94 93.4302 37.9C93.6002 37.85 93.7302 37.765 93.8202 37.645C93.9102 37.515 93.9652 37.34 93.9852 37.12C94.0152 36.9 94.0302 36.6 94.0302 36.22V34.33C94.0302 33.76 94.0002 33.28 93.9402 32.89C93.8802 32.49 93.7802 32.17 93.6402 31.93C93.5002 31.68 93.3152 31.5 93.0852 31.39C92.8652 31.28 92.5952 31.225 92.2752 31.225C91.8352 31.225 91.4202 31.35 91.0302 31.6C90.6502 31.84 90.3502 32.165 90.1302 32.575C90.0802 32.675 90.0352 32.775 89.9952 32.875C89.9652 32.965 89.9402 33.07 89.9202 33.19C89.9002 33.3 89.8852 33.435 89.8752 33.595C89.8752 33.755 89.8752 33.955 89.8752 34.195V36.1C89.8752 36.51 89.8852 36.835 89.9052 37.075C89.9252 37.315 89.9752 37.5 90.0552 37.63C90.1452 37.76 90.2752 37.845 90.4452 37.885C90.6152 37.925 90.8452 37.955 91.1352 37.975V38.5H87.1452V37.975C87.4252 37.955 87.6502 37.925 87.8202 37.885C87.9902 37.845 88.1152 37.765 88.1952 37.645C88.2852 37.525 88.3402 37.355 88.3602 37.135C88.3902 36.905 88.4052 36.6 88.4052 36.22V34.33C88.4052 33.75 88.3752 33.265 88.3152 32.875C88.2552 32.475 88.1552 32.155 88.0152 31.915C87.8852 31.665 87.7102 31.49 87.4902 31.39C87.2702 31.28 87.0002 31.225 86.6802 31.225C86.2302 31.225 85.8052 31.35 85.4052 31.6C85.0152 31.84 84.7202 32.165 84.5202 32.575C84.4702 32.675 84.4252 32.775 84.3852 32.875C84.3552 32.965 84.3302 33.07 84.3102 33.19C84.2902 33.3 84.2752 33.435 84.2652 33.595C84.2652 33.755 84.2652 33.955 84.2652 34.195V36.1ZM100.199 31.63H100.259C100.579 31.25 100.924 30.95 101.294 30.73C101.664 30.51 102.094 30.4 102.584 30.4C103.154 30.4 103.674 30.505 104.144 30.715C104.624 30.915 105.039 31.2 105.389 31.57C105.739 31.94 106.009 32.38 106.199 32.89C106.399 33.39 106.499 33.94 106.499 34.54C106.499 35.15 106.399 35.71 106.199 36.22C105.999 36.72 105.724 37.15 105.374 37.51C105.024 37.87 104.609 38.15 104.129 38.35C103.649 38.55 103.129 38.65 102.569 38.65C102.109 38.65 101.689 38.575 101.309 38.425C100.939 38.265 100.589 38.01 100.259 37.66V39.85C100.259 40.25 100.279 40.57 100.319 40.81C100.359 41.05 100.439 41.235 100.559 41.365C100.679 41.495 100.849 41.585 101.069 41.635C101.299 41.685 101.599 41.715 101.969 41.725V42.25H97.3488V41.725C97.6488 41.715 97.8888 41.685 98.0688 41.635C98.2588 41.585 98.4038 41.495 98.5038 41.365C98.6138 41.235 98.6888 41.055 98.7288 40.825C98.7688 40.605 98.7888 40.315 98.7888 39.955V34.345C98.7888 33.765 98.7788 33.29 98.7588 32.92C98.7488 32.55 98.7238 32.295 98.6838 32.155C98.6338 31.915 98.5188 31.755 98.3388 31.675C98.1588 31.585 97.8188 31.54 97.3188 31.54V31.03L100.199 30.46V31.63ZM100.649 32.065C100.519 32.265 100.419 32.505 100.349 32.785C100.289 33.055 100.259 33.41 100.259 33.85V35.02C100.259 35.29 100.264 35.525 100.274 35.725C100.294 35.915 100.319 36.08 100.349 36.22C100.379 36.36 100.419 36.485 100.469 36.595C100.519 36.705 100.584 36.81 100.664 36.91C100.894 37.23 101.169 37.48 101.489 37.66C101.809 37.83 102.144 37.915 102.494 37.915C103.184 37.915 103.739 37.625 104.159 37.045C104.589 36.465 104.804 35.65 104.804 34.6C104.804 34.08 104.744 33.61 104.624 33.19C104.514 32.76 104.354 32.395 104.144 32.095C103.934 31.785 103.679 31.545 103.379 31.375C103.089 31.205 102.764 31.12 102.404 31.12C102.044 31.12 101.709 31.205 101.399 31.375C101.099 31.535 100.849 31.765 100.649 32.065ZM110.364 36.16C110.364 36.54 110.379 36.845 110.409 37.075C110.439 37.305 110.499 37.485 110.589 37.615C110.689 37.745 110.824 37.835 110.994 37.885C111.174 37.935 111.409 37.965 111.699 37.975V38.5H107.559V37.975C107.859 37.965 108.099 37.935 108.279 37.885C108.459 37.825 108.599 37.735 108.699 37.615C108.809 37.495 108.879 37.33 108.909 37.12C108.949 36.9 108.969 36.615 108.969 36.265V29.8C108.969 29.26 108.959 28.81 108.939 28.45C108.929 28.08 108.909 27.83 108.879 27.7C108.829 27.47 108.709 27.315 108.519 27.235C108.339 27.155 108.009 27.115 107.529 27.115V26.605L110.364 26.05V36.16ZM119.937 37.105C119.087 38.135 118.032 38.65 116.772 38.65C116.182 38.65 115.647 38.555 115.167 38.365C114.687 38.165 114.272 37.89 113.922 37.54C113.582 37.18 113.317 36.755 113.127 36.265C112.937 35.765 112.842 35.215 112.842 34.615C112.842 34.005 112.942 33.44 113.142 32.92C113.342 32.4 113.622 31.955 113.982 31.585C114.352 31.215 114.787 30.925 115.287 30.715C115.797 30.505 116.352 30.4 116.952 30.4C117.922 30.4 118.672 30.665 119.202 31.195C119.732 31.715 119.997 32.465 119.997 33.445C119.997 33.585 119.967 33.67 119.907 33.7C119.857 33.73 119.732 33.745 119.532 33.745H114.597C114.577 33.825 114.562 33.925 114.552 34.045C114.542 34.155 114.537 34.28 114.537 34.42C114.537 34.94 114.597 35.415 114.717 35.845C114.847 36.265 115.027 36.625 115.257 36.925C115.497 37.225 115.777 37.46 116.097 37.63C116.427 37.79 116.792 37.87 117.192 37.87C117.612 37.87 118.002 37.78 118.362 37.6C118.722 37.41 119.092 37.105 119.472 36.685L119.937 37.105ZM117.462 33.055C117.662 33.055 117.822 33.05 117.942 33.04C118.062 33.03 118.152 33.01 118.212 32.98C118.272 32.95 118.312 32.91 118.332 32.86C118.352 32.8 118.362 32.725 118.362 32.635C118.362 32.175 118.212 31.81 117.912 31.54C117.622 31.26 117.222 31.12 116.712 31.12C115.632 31.12 114.962 31.765 114.702 33.055H117.462ZM131.101 30.55H132.541L131.536 34.105C131.426 34.505 131.331 34.885 131.251 35.245C131.181 35.595 131.146 35.845 131.146 35.995C131.146 36.185 131.206 36.335 131.326 36.445C131.446 36.545 131.606 36.595 131.806 36.595C132.136 36.595 132.461 36.47 132.781 36.22C133.111 35.96 133.401 35.625 133.651 35.215C133.911 34.795 134.121 34.325 134.281 33.805C134.441 33.275 134.521 32.74 134.521 32.2C134.521 31.52 134.386 30.895 134.116 30.325C133.856 29.745 133.491 29.245 133.021 28.825C132.561 28.405 132.011 28.075 131.371 27.835C130.731 27.595 130.031 27.475 129.271 27.475C128.371 27.475 127.526 27.645 126.736 27.985C125.956 28.315 125.276 28.775 124.696 29.365C124.126 29.945 123.676 30.635 123.346 31.435C123.016 32.235 122.851 33.095 122.851 34.015C122.851 34.875 122.996 35.66 123.286 36.37C123.586 37.08 124.001 37.69 124.531 38.2C125.071 38.7 125.716 39.09 126.466 39.37C127.216 39.65 128.046 39.79 128.956 39.79C130.646 39.79 132.216 39.29 133.666 38.29L133.981 38.755C133.101 39.365 132.246 39.81 131.416 40.09C130.586 40.37 129.701 40.51 128.761 40.51C127.691 40.51 126.711 40.35 125.821 40.03C124.931 39.71 124.166 39.26 123.526 38.68C122.886 38.11 122.386 37.425 122.026 36.625C121.666 35.825 121.486 34.95 121.486 34C121.486 32.99 121.681 32.045 122.071 31.165C122.471 30.285 123.016 29.525 123.706 28.885C124.406 28.235 125.221 27.725 126.151 27.355C127.091 26.985 128.101 26.8 129.181 26.8C130.081 26.8 130.896 26.93 131.626 27.19C132.366 27.45 133.001 27.815 133.531 28.285C134.061 28.755 134.471 29.32 134.761 29.98C135.051 30.64 135.196 31.37 135.196 32.17C135.196 32.86 135.091 33.52 134.881 34.15C134.681 34.77 134.406 35.32 134.056 35.8C133.706 36.27 133.301 36.645 132.841 36.925C132.381 37.205 131.896 37.345 131.386 37.345C130.426 37.345 129.901 36.77 129.811 35.62H129.751C129.441 36.14 129.056 36.56 128.596 36.88C128.136 37.19 127.676 37.345 127.216 37.345C126.896 37.345 126.596 37.28 126.316 37.15C126.046 37.02 125.811 36.845 125.611 36.625C125.411 36.395 125.251 36.125 125.131 35.815C125.021 35.495 124.966 35.15 124.966 34.78C124.966 34.23 125.081 33.695 125.311 33.175C125.541 32.645 125.841 32.175 126.211 31.765C126.591 31.355 127.016 31.025 127.486 30.775C127.966 30.525 128.456 30.4 128.956 30.4C129.426 30.4 129.801 30.52 130.081 30.76C130.361 30.99 130.571 31.36 130.711 31.87L130.771 31.885L131.101 30.55ZM129.076 31.03C128.746 31.03 128.421 31.15 128.101 31.39C127.791 31.62 127.511 31.925 127.261 32.305C127.011 32.685 126.811 33.12 126.661 33.61C126.511 34.09 126.436 34.585 126.436 35.095C126.436 36.145 126.771 36.67 127.441 36.67C127.761 36.67 128.086 36.55 128.416 36.31C128.746 36.06 129.041 35.74 129.301 35.35C129.571 34.96 129.791 34.525 129.961 34.045C130.131 33.555 130.216 33.07 130.216 32.59C130.216 32.1 130.116 31.72 129.916 31.45C129.716 31.17 129.436 31.03 129.076 31.03ZM143.976 37.105C143.126 38.135 142.071 38.65 140.811 38.65C140.221 38.65 139.686 38.555 139.206 38.365C138.726 38.165 138.311 37.89 137.961 37.54C137.621 37.18 137.356 36.755 137.166 36.265C136.976 35.765 136.881 35.215 136.881 34.615C136.881 34.005 136.981 33.44 137.181 32.92C137.381 32.4 137.661 31.955 138.021 31.585C138.391 31.215 138.826 30.925 139.326 30.715C139.836 30.505 140.391 30.4 140.991 30.4C141.961 30.4 142.711 30.665 143.241 31.195C143.771 31.715 144.036 32.465 144.036 33.445C144.036 33.585 144.006 33.67 143.946 33.7C143.896 33.73 143.771 33.745 143.571 33.745H138.636C138.616 33.825 138.601 33.925 138.591 34.045C138.581 34.155 138.576 34.28 138.576 34.42C138.576 34.94 138.636 35.415 138.756 35.845C138.886 36.265 139.066 36.625 139.296 36.925C139.536 37.225 139.816 37.46 140.136 37.63C140.466 37.79 140.831 37.87 141.231 37.87C141.651 37.87 142.041 37.78 142.401 37.6C142.761 37.41 143.131 37.105 143.511 36.685L143.976 37.105ZM141.501 33.055C141.701 33.055 141.861 33.05 141.981 33.04C142.101 33.03 142.191 33.01 142.251 32.98C142.311 32.95 142.351 32.91 142.371 32.86C142.391 32.8 142.401 32.725 142.401 32.635C142.401 32.175 142.251 31.81 141.951 31.54C141.661 31.26 141.261 31.12 140.751 31.12C139.671 31.12 139.001 31.765 138.741 33.055H141.501ZM148.059 36.1C148.059 36.52 148.069 36.85 148.089 37.09C148.109 37.33 148.159 37.515 148.239 37.645C148.329 37.765 148.454 37.845 148.614 37.885C148.774 37.925 148.999 37.955 149.289 37.975V38.5H145.299V37.975C145.589 37.955 145.819 37.925 145.989 37.885C146.159 37.845 146.289 37.765 146.379 37.645C146.469 37.525 146.524 37.355 146.544 37.135C146.574 36.905 146.589 36.6 146.589 36.22V34.3C146.589 33.73 146.579 33.255 146.559 32.875C146.549 32.495 146.524 32.235 146.484 32.095C146.454 31.965 146.419 31.865 146.379 31.795C146.339 31.715 146.274 31.655 146.184 31.615C146.094 31.565 145.974 31.535 145.824 31.525C145.684 31.505 145.499 31.495 145.269 31.495V30.97L147.714 30.4L147.909 31.9H147.984C148.434 31.39 148.904 31.015 149.394 30.775C149.894 30.525 150.444 30.4 151.044 30.4C151.674 30.4 152.204 30.53 152.634 30.79C153.064 31.04 153.364 31.405 153.534 31.885H153.594C153.964 31.415 154.414 31.05 154.944 30.79C155.474 30.53 156.039 30.4 156.639 30.4C157.109 30.4 157.534 30.48 157.914 30.64C158.304 30.79 158.599 31 158.799 31.27C158.979 31.5 159.104 31.805 159.174 32.185C159.254 32.555 159.294 33.065 159.294 33.715V36.1C159.294 36.51 159.304 36.835 159.324 37.075C159.354 37.315 159.409 37.5 159.489 37.63C159.569 37.76 159.689 37.845 159.849 37.885C160.019 37.925 160.249 37.955 160.539 37.975V38.5H156.549V37.975C156.829 37.965 157.054 37.94 157.224 37.9C157.394 37.85 157.524 37.765 157.614 37.645C157.704 37.515 157.759 37.34 157.779 37.12C157.809 36.9 157.824 36.6 157.824 36.22V34.33C157.824 33.76 157.794 33.28 157.734 32.89C157.674 32.49 157.574 32.17 157.434 31.93C157.294 31.68 157.109 31.5 156.879 31.39C156.659 31.28 156.389 31.225 156.069 31.225C155.629 31.225 155.214 31.35 154.824 31.6C154.444 31.84 154.144 32.165 153.924 32.575C153.874 32.675 153.829 32.775 153.789 32.875C153.759 32.965 153.734 33.07 153.714 33.19C153.694 33.3 153.679 33.435 153.669 33.595C153.669 33.755 153.669 33.955 153.669 34.195V36.1C153.669 36.51 153.679 36.835 153.699 37.075C153.719 37.315 153.769 37.5 153.849 37.63C153.939 37.76 154.069 37.845 154.239 37.885C154.409 37.925 154.639 37.955 154.929 37.975V38.5H150.939V37.975C151.219 37.955 151.444 37.925 151.614 37.885C151.784 37.845 151.909 37.765 151.989 37.645C152.079 37.525 152.134 37.355 152.154 37.135C152.184 36.905 152.199 36.6 152.199 36.22V34.33C152.199 33.75 152.169 33.265 152.109 32.875C152.049 32.475 151.949 32.155 151.809 31.915C151.679 31.665 151.504 31.49 151.284 31.39C151.064 31.28 150.794 31.225 150.474 31.225C150.024 31.225 149.599 31.35 149.199 31.6C148.809 31.84 148.514 32.165 148.314 32.575C148.264 32.675 148.219 32.775 148.179 32.875C148.149 32.965 148.124 33.07 148.104 33.19C148.084 33.3 148.069 33.435 148.059 33.595C148.059 33.755 148.059 33.955 148.059 34.195V36.1ZM166.078 34.06C165.508 34.28 165.023 34.495 164.623 34.705C164.233 34.915 163.918 35.125 163.678 35.335C163.438 35.545 163.263 35.755 163.153 35.965C163.053 36.175 163.003 36.39 163.003 36.61C163.003 36.94 163.113 37.21 163.333 37.42C163.553 37.63 163.843 37.735 164.203 37.735C164.463 37.735 164.703 37.67 164.923 37.54C165.153 37.41 165.353 37.235 165.523 37.015C165.693 36.785 165.828 36.52 165.928 36.22C166.028 35.91 166.078 35.585 166.078 35.245V34.06ZM166.078 33.415V32.8C166.078 31.58 165.558 30.97 164.518 30.97C164.348 30.97 164.203 30.985 164.083 31.015C163.963 31.045 163.863 31.095 163.783 31.165C163.703 31.235 163.628 31.335 163.558 31.465C163.498 31.595 163.438 31.755 163.378 31.945C163.268 32.235 163.158 32.43 163.048 32.53C162.948 32.62 162.798 32.665 162.598 32.665C162.098 32.665 161.848 32.415 161.848 31.915C161.848 31.435 162.103 31.065 162.613 30.805C163.123 30.535 163.848 30.4 164.788 30.4C165.788 30.4 166.498 30.58 166.918 30.94C167.338 31.29 167.548 31.89 167.548 32.74V36.1C167.548 37.24 167.773 37.81 168.223 37.81C168.363 37.81 168.498 37.795 168.628 37.765C168.758 37.725 168.868 37.63 168.958 37.48L169.168 37.84C169.048 38.07 168.828 38.265 168.508 38.425C168.188 38.575 167.853 38.65 167.503 38.65C167.063 38.65 166.733 38.51 166.513 38.23C166.303 37.95 166.198 37.555 166.198 37.045H166.123C165.863 37.535 165.503 37.925 165.043 38.215C164.583 38.495 164.073 38.635 163.513 38.635C162.883 38.635 162.388 38.475 162.028 38.155C161.668 37.835 161.488 37.405 161.488 36.865C161.488 36.625 161.528 36.395 161.608 36.175C161.698 35.955 161.838 35.745 162.028 35.545C162.218 35.345 162.468 35.15 162.778 34.96C163.088 34.76 163.468 34.56 163.918 34.36L166.078 33.415ZM172.568 36.115C172.568 36.505 172.583 36.82 172.613 37.06C172.653 37.29 172.723 37.475 172.823 37.615C172.923 37.745 173.063 37.835 173.243 37.885C173.423 37.935 173.663 37.965 173.963 37.975V38.5H169.658V37.975C169.958 37.965 170.203 37.935 170.393 37.885C170.583 37.825 170.728 37.735 170.828 37.615C170.938 37.485 171.008 37.31 171.038 37.09C171.078 36.86 171.098 36.57 171.098 36.22V34.3C171.098 33.72 171.088 33.245 171.068 32.875C171.058 32.495 171.033 32.235 170.993 32.095C170.943 31.865 170.828 31.71 170.648 31.63C170.468 31.54 170.128 31.495 169.628 31.495V30.97L172.568 30.4V36.115ZM170.843 27.355C170.843 27.095 170.933 26.875 171.113 26.695C171.293 26.515 171.513 26.425 171.773 26.425C172.033 26.425 172.253 26.515 172.433 26.695C172.613 26.875 172.703 27.095 172.703 27.355C172.703 27.615 172.613 27.835 172.433 28.015C172.253 28.195 172.033 28.285 171.773 28.285C171.513 28.285 171.293 28.195 171.113 28.015C170.933 27.835 170.843 27.615 170.843 27.355ZM177.396 36.16C177.396 36.54 177.411 36.845 177.441 37.075C177.471 37.305 177.531 37.485 177.621 37.615C177.721 37.745 177.856 37.835 178.026 37.885C178.206 37.935 178.441 37.965 178.731 37.975V38.5H174.591V37.975C174.891 37.965 175.131 37.935 175.311 37.885C175.491 37.825 175.631 37.735 175.731 37.615C175.841 37.495 175.911 37.33 175.941 37.12C175.981 36.9 176.001 36.615 176.001 36.265V29.8C176.001 29.26 175.991 28.81 175.971 28.45C175.961 28.08 175.941 27.83 175.911 27.7C175.861 27.47 175.741 27.315 175.551 27.235C175.371 27.155 175.041 27.115 174.561 27.115V26.605L177.396 26.05V36.16ZM180.144 37.675C180.144 37.395 180.239 37.16 180.429 36.97C180.619 36.78 180.849 36.685 181.119 36.685C181.399 36.685 181.634 36.78 181.824 36.97C182.014 37.16 182.109 37.395 182.109 37.675C182.109 37.945 182.014 38.175 181.824 38.365C181.634 38.555 181.399 38.65 181.119 38.65C180.849 38.65 180.619 38.555 180.429 38.365C180.239 38.175 180.144 37.945 180.144 37.675ZM190.698 37.255C190.338 37.695 189.873 38.04 189.303 38.29C188.733 38.53 188.118 38.65 187.458 38.65C186.928 38.65 186.438 38.555 185.988 38.365C185.548 38.165 185.168 37.89 184.848 37.54C184.528 37.18 184.278 36.75 184.098 36.25C183.928 35.75 183.843 35.195 183.843 34.585C183.843 33.945 183.943 33.37 184.143 32.86C184.343 32.34 184.623 31.9 184.983 31.54C185.353 31.17 185.793 30.89 186.303 30.7C186.823 30.5 187.393 30.4 188.013 30.4C188.403 30.4 188.758 30.435 189.078 30.505C189.398 30.565 189.673 30.655 189.903 30.775C190.143 30.885 190.328 31.025 190.458 31.195C190.588 31.355 190.653 31.53 190.653 31.72C190.653 31.92 190.588 32.075 190.458 32.185C190.328 32.295 190.148 32.35 189.918 32.35C189.738 32.35 189.588 32.315 189.468 32.245C189.348 32.165 189.193 31.995 189.003 31.735C188.803 31.505 188.608 31.345 188.418 31.255C188.238 31.155 188.003 31.105 187.713 31.105C187.003 31.105 186.463 31.38 186.093 31.93C185.733 32.48 185.553 33.29 185.553 34.36C185.553 35.51 185.753 36.385 186.153 36.985C186.563 37.575 187.158 37.87 187.938 37.87C188.358 37.87 188.753 37.79 189.123 37.63C189.493 37.46 189.868 37.19 190.248 36.82L190.698 37.255ZM196.025 30.4C196.595 30.4 197.135 30.505 197.645 30.715C198.155 30.915 198.6 31.195 198.98 31.555C199.37 31.915 199.675 32.345 199.895 32.845C200.125 33.335 200.24 33.875 200.24 34.465C200.24 35.075 200.125 35.635 199.895 36.145C199.675 36.655 199.37 37.095 198.98 37.465C198.6 37.835 198.155 38.125 197.645 38.335C197.135 38.545 196.595 38.65 196.025 38.65C195.465 38.65 194.93 38.55 194.42 38.35C193.92 38.14 193.48 37.85 193.1 37.48C192.72 37.11 192.42 36.67 192.2 36.16C191.98 35.64 191.87 35.075 191.87 34.465C191.87 33.875 191.98 33.33 192.2 32.83C192.42 32.33 192.72 31.9 193.1 31.54C193.48 31.18 193.92 30.9 194.42 30.7C194.93 30.5 195.465 30.4 196.025 30.4ZM196.025 31.12C195.655 31.12 195.315 31.2 195.005 31.36C194.705 31.52 194.445 31.75 194.225 32.05C194.015 32.34 193.85 32.695 193.73 33.115C193.62 33.525 193.565 33.98 193.565 34.48C193.565 35 193.62 35.47 193.73 35.89C193.85 36.31 194.015 36.67 194.225 36.97C194.445 37.26 194.705 37.485 195.005 37.645C195.305 37.805 195.645 37.885 196.025 37.885C196.405 37.885 196.75 37.805 197.06 37.645C197.37 37.485 197.635 37.255 197.855 36.955C198.075 36.655 198.245 36.295 198.365 35.875C198.485 35.455 198.545 34.99 198.545 34.48C198.545 33.98 198.485 33.525 198.365 33.115C198.245 32.705 198.075 32.355 197.855 32.065C197.635 31.765 197.37 31.535 197.06 31.375C196.75 31.205 196.405 31.12 196.025 31.12ZM204.28 36.1C204.28 36.52 204.29 36.85 204.31 37.09C204.33 37.33 204.38 37.515 204.46 37.645C204.55 37.765 204.675 37.845 204.835 37.885C204.995 37.925 205.22 37.955 205.51 37.975V38.5H201.52V37.975C201.81 37.955 202.04 37.925 202.21 37.885C202.38 37.845 202.51 37.765 202.6 37.645C202.69 37.525 202.745 37.355 202.765 37.135C202.795 36.905 202.81 36.6 202.81 36.22V34.3C202.81 33.73 202.8 33.255 202.78 32.875C202.77 32.495 202.745 32.235 202.705 32.095C202.675 31.965 202.64 31.865 202.6 31.795C202.56 31.715 202.495 31.655 202.405 31.615C202.315 31.565 202.195 31.535 202.045 31.525C201.905 31.505 201.72 31.495 201.49 31.495V30.97L203.935 30.4L204.13 31.9H204.205C204.655 31.39 205.125 31.015 205.615 30.775C206.115 30.525 206.665 30.4 207.265 30.4C207.895 30.4 208.425 30.53 208.855 30.79C209.285 31.04 209.585 31.405 209.755 31.885H209.815C210.185 31.415 210.635 31.05 211.165 30.79C211.695 30.53 212.26 30.4 212.86 30.4C213.33 30.4 213.755 30.48 214.135 30.64C214.525 30.79 214.82 31 215.02 31.27C215.2 31.5 215.325 31.805 215.395 32.185C215.475 32.555 215.515 33.065 215.515 33.715V36.1C215.515 36.51 215.525 36.835 215.545 37.075C215.575 37.315 215.63 37.5 215.71 37.63C215.79 37.76 215.91 37.845 216.07 37.885C216.24 37.925 216.47 37.955 216.76 37.975V38.5H212.77V37.975C213.05 37.965 213.275 37.94 213.445 37.9C213.615 37.85 213.745 37.765 213.835 37.645C213.925 37.515 213.98 37.34 214 37.12C214.03 36.9 214.045 36.6 214.045 36.22V34.33C214.045 33.76 214.015 33.28 213.955 32.89C213.895 32.49 213.795 32.17 213.655 31.93C213.515 31.68 213.33 31.5 213.1 31.39C212.88 31.28 212.61 31.225 212.29 31.225C211.85 31.225 211.435 31.35 211.045 31.6C210.665 31.84 210.365 32.165 210.145 32.575C210.095 32.675 210.05 32.775 210.01 32.875C209.98 32.965 209.955 33.07 209.935 33.19C209.915 33.3 209.9 33.435 209.89 33.595C209.89 33.755 209.89 33.955 209.89 34.195V36.1C209.89 36.51 209.9 36.835 209.92 37.075C209.94 37.315 209.99 37.5 210.07 37.63C210.16 37.76 210.29 37.845 210.46 37.885C210.63 37.925 210.86 37.955 211.15 37.975V38.5H207.16V37.975C207.44 37.955 207.665 37.925 207.835 37.885C208.005 37.845 208.13 37.765 208.21 37.645C208.3 37.525 208.355 37.355 208.375 37.135C208.405 36.905 208.42 36.6 208.42 36.22V34.33C208.42 33.75 208.39 33.265 208.33 32.875C208.27 32.475 208.17 32.155 208.03 31.915C207.9 31.665 207.725 31.49 207.505 31.39C207.285 31.28 207.015 31.225 206.695 31.225C206.245 31.225 205.82 31.35 205.42 31.6C205.03 31.84 204.735 32.165 204.535 32.575C204.485 32.675 204.44 32.775 204.4 32.875C204.37 32.965 204.345 33.07 204.325 33.19C204.305 33.3 204.29 33.435 204.28 33.595C204.28 33.755 204.28 33.955 204.28 34.195V36.1Z" fill="#212121"/>
<rect x="3" y="91" width="527" height="60" rx="5" fill="#D9D9D9"/>
<rect x="3" y="91" width="527" height="60" rx="5" stroke="#212121"/>
<path d="M12.87 122.975H13.425C13.495 123.425 13.625 123.83 13.815 124.19C14.015 124.55 14.26 124.855 14.55 125.105C14.85 125.355 15.19 125.55 15.57 125.69C15.96 125.82 16.38 125.885 16.83 125.885C17.57 125.885 18.155 125.71 18.585 125.36C19.015 125.01 19.23 124.535 19.23 123.935C19.23 123.685 19.185 123.455 19.095 123.245C19.015 123.035 18.875 122.835 18.675 122.645C18.475 122.445 18.205 122.25 17.865 122.06C17.535 121.87 17.115 121.665 16.605 121.445C15.985 121.175 15.465 120.915 15.045 120.665C14.625 120.415 14.29 120.155 14.04 119.885C13.79 119.615 13.61 119.33 13.5 119.03C13.4 118.72 13.35 118.37 13.35 117.98C13.35 117.52 13.43 117.095 13.59 116.705C13.76 116.315 13.995 115.98 14.295 115.7C14.595 115.41 14.95 115.19 15.36 115.04C15.77 114.88 16.22 114.8 16.71 114.8C17.15 114.8 17.56 114.87 17.94 115.01C18.32 115.15 18.705 115.375 19.095 115.685L19.485 115.01H19.83L19.995 117.995H19.44C19.2 117.175 18.85 116.565 18.39 116.165C17.94 115.765 17.395 115.565 16.755 115.565C16.145 115.565 15.66 115.715 15.3 116.015C14.94 116.315 14.76 116.72 14.76 117.23C14.76 117.47 14.8 117.69 14.88 117.89C14.96 118.08 15.09 118.265 15.27 118.445C15.45 118.615 15.685 118.79 15.975 118.97C16.265 119.14 16.625 119.32 17.055 119.51C17.795 119.84 18.41 120.15 18.9 120.44C19.39 120.72 19.78 121.005 20.07 121.295C20.36 121.575 20.565 121.875 20.685 122.195C20.805 122.505 20.865 122.855 20.865 123.245C20.865 123.745 20.765 124.205 20.565 124.625C20.365 125.045 20.085 125.405 19.725 125.705C19.365 126.005 18.935 126.24 18.435 126.41C17.935 126.57 17.385 126.65 16.785 126.65C16.215 126.65 15.7 126.57 15.24 126.41C14.79 126.25 14.33 125.98 13.86 125.6L13.44 126.335H13.095L12.87 122.975ZM29.498 125.105C28.648 126.135 27.593 126.65 26.333 126.65C25.743 126.65 25.208 126.555 24.728 126.365C24.248 126.165 23.833 125.89 23.483 125.54C23.143 125.18 22.878 124.755 22.688 124.265C22.498 123.765 22.403 123.215 22.403 122.615C22.403 122.005 22.503 121.44 22.703 120.92C22.903 120.4 23.183 119.955 23.543 119.585C23.913 119.215 24.348 118.925 24.848 118.715C25.358 118.505 25.913 118.4 26.513 118.4C27.483 118.4 28.233 118.665 28.763 119.195C29.293 119.715 29.558 120.465 29.558 121.445C29.558 121.585 29.528 121.67 29.468 121.7C29.418 121.73 29.293 121.745 29.093 121.745H24.158C24.138 121.825 24.123 121.925 24.113 122.045C24.103 122.155 24.098 122.28 24.098 122.42C24.098 122.94 24.158 123.415 24.278 123.845C24.408 124.265 24.588 124.625 24.818 124.925C25.058 125.225 25.338 125.46 25.658 125.63C25.988 125.79 26.353 125.87 26.753 125.87C27.173 125.87 27.563 125.78 27.923 125.6C28.283 125.41 28.653 125.105 29.033 124.685L29.498 125.105ZM27.023 121.055C27.223 121.055 27.383 121.05 27.503 121.04C27.623 121.03 27.713 121.01 27.773 120.98C27.833 120.95 27.873 120.91 27.893 120.86C27.913 120.8 27.923 120.725 27.923 120.635C27.923 120.175 27.773 119.81 27.473 119.54C27.183 119.26 26.783 119.12 26.273 119.12C25.193 119.12 24.523 119.765 24.263 121.055H27.023ZM33.5066 124.145C33.5066 124.555 33.5166 124.88 33.5366 125.12C33.5566 125.35 33.6066 125.53 33.6866 125.66C33.7766 125.78 33.9016 125.86 34.0616 125.9C34.2316 125.94 34.4616 125.97 34.7516 125.99V126.5H30.8216V125.99C31.1016 125.97 31.3216 125.94 31.4816 125.9C31.6516 125.86 31.7816 125.78 31.8716 125.66C31.9616 125.54 32.0166 125.37 32.0366 125.15C32.0666 124.93 32.0816 124.63 32.0816 124.25V122.255C32.0816 121.065 32.0516 120.34 31.9916 120.08C31.9616 119.95 31.9216 119.845 31.8716 119.765C31.8316 119.675 31.7666 119.61 31.6766 119.57C31.5866 119.52 31.4716 119.49 31.3316 119.48C31.1916 119.46 31.0116 119.45 30.7916 119.45V118.97L33.1916 118.4L33.3716 119.885H33.4316C33.8116 119.415 34.2566 119.05 34.7666 118.79C35.2766 118.53 35.8316 118.4 36.4316 118.4C36.8916 118.4 37.3116 118.475 37.6916 118.625C38.0716 118.775 38.3616 118.98 38.5616 119.24C38.7316 119.47 38.8516 119.77 38.9216 120.14C38.9916 120.5 39.0266 121 39.0266 121.64V124.145C39.0266 124.555 39.0366 124.88 39.0566 125.12C39.0866 125.35 39.1416 125.53 39.2216 125.66C39.3016 125.78 39.4216 125.86 39.5816 125.9C39.7516 125.94 39.9716 125.97 40.2416 125.99V126.5H36.3566V125.99C36.6366 125.98 36.8566 125.955 37.0166 125.915C37.1866 125.865 37.3116 125.78 37.3916 125.66C37.4816 125.54 37.5366 125.37 37.5566 125.15C37.5866 124.92 37.6016 124.62 37.6016 124.25V122.27C37.6016 121.7 37.5716 121.22 37.5116 120.83C37.4516 120.44 37.3516 120.125 37.2116 119.885C37.0816 119.645 36.9066 119.475 36.6866 119.375C36.4666 119.265 36.2016 119.21 35.8916 119.21C35.4416 119.21 35.0266 119.33 34.6466 119.57C34.2766 119.8 33.9866 120.12 33.7766 120.53C33.7266 120.63 33.6816 120.725 33.6416 120.815C33.6116 120.905 33.5866 121.01 33.5666 121.13C33.5466 121.25 33.5316 121.39 33.5216 121.55C33.5116 121.7 33.5066 121.895 33.5066 122.135V124.145ZM43.7284 124.115C43.7284 124.525 43.7384 124.85 43.7584 125.09C43.7784 125.33 43.8284 125.515 43.9084 125.645C43.9984 125.765 44.1234 125.845 44.2834 125.885C44.4434 125.925 44.6684 125.955 44.9584 125.975V126.5H40.9684V125.975C41.2584 125.955 41.4884 125.925 41.6584 125.885C41.8284 125.845 41.9584 125.765 42.0484 125.645C42.1384 125.525 42.1934 125.355 42.2134 125.135C42.2434 124.905 42.2584 124.6 42.2584 124.22V117.935C42.2584 117.345 42.2484 116.875 42.2284 116.525C42.2184 116.175 42.1934 115.91 42.1534 115.73C42.1334 115.61 42.0984 115.515 42.0484 115.445C42.0084 115.365 41.9434 115.305 41.8534 115.265C41.7634 115.215 41.6434 115.18 41.4934 115.16C41.3434 115.14 41.1584 115.13 40.9384 115.13V114.62L43.6984 114.05V119.765H43.7584C43.9084 119.565 44.0934 119.385 44.3134 119.225C44.5434 119.055 44.7884 118.91 45.0484 118.79C45.3084 118.67 45.5784 118.575 45.8584 118.505C46.1484 118.435 46.4284 118.4 46.6984 118.4C47.1584 118.4 47.5784 118.48 47.9584 118.64C48.3484 118.8 48.6484 119.015 48.8584 119.285C49.0284 119.515 49.1534 119.82 49.2334 120.2C49.3134 120.57 49.3534 121.075 49.3534 121.715V124.115C49.3534 124.525 49.3634 124.85 49.3834 125.09C49.4034 125.32 49.4534 125.5 49.5334 125.63C49.6234 125.76 49.7484 125.845 49.9084 125.885C50.0684 125.925 50.2934 125.955 50.5834 125.975V126.5H46.6084V125.975C46.8884 125.965 47.1134 125.94 47.2834 125.9C47.4534 125.85 47.5784 125.765 47.6584 125.645C47.7484 125.525 47.8034 125.355 47.8234 125.135C47.8534 124.905 47.8684 124.6 47.8684 124.22V122.33C47.8684 121.21 47.7384 120.415 47.4784 119.945C47.2184 119.465 46.7834 119.225 46.1734 119.225C45.7034 119.225 45.2734 119.345 44.8834 119.585C44.5034 119.825 44.2034 120.155 43.9834 120.575C43.9334 120.685 43.8884 120.79 43.8484 120.89C43.8184 120.98 43.7934 121.085 43.7734 121.205C43.7534 121.325 43.7384 121.465 43.7284 121.625C43.7284 121.775 43.7284 121.965 43.7284 122.195V124.115ZM56.1705 122.06C55.6005 122.28 55.1155 122.495 54.7155 122.705C54.3255 122.915 54.0105 123.125 53.7705 123.335C53.5305 123.545 53.3555 123.755 53.2455 123.965C53.1455 124.175 53.0955 124.39 53.0955 124.61C53.0955 124.94 53.2055 125.21 53.4255 125.42C53.6455 125.63 53.9355 125.735 54.2955 125.735C54.5555 125.735 54.7955 125.67 55.0155 125.54C55.2455 125.41 55.4455 125.235 55.6155 125.015C55.7855 124.785 55.9205 124.52 56.0205 124.22C56.1205 123.91 56.1705 123.585 56.1705 123.245V122.06ZM56.1705 121.415V120.8C56.1705 119.58 55.6505 118.97 54.6105 118.97C54.4405 118.97 54.2955 118.985 54.1755 119.015C54.0555 119.045 53.9555 119.095 53.8755 119.165C53.7955 119.235 53.7205 119.335 53.6505 119.465C53.5905 119.595 53.5305 119.755 53.4705 119.945C53.3605 120.235 53.2505 120.43 53.1405 120.53C53.0405 120.62 52.8905 120.665 52.6905 120.665C52.1905 120.665 51.9405 120.415 51.9405 119.915C51.9405 119.435 52.1955 119.065 52.7055 118.805C53.2155 118.535 53.9405 118.4 54.8805 118.4C55.8805 118.4 56.5905 118.58 57.0105 118.94C57.4305 119.29 57.6405 119.89 57.6405 120.74V124.1C57.6405 125.24 57.8655 125.81 58.3155 125.81C58.4555 125.81 58.5905 125.795 58.7205 125.765C58.8505 125.725 58.9605 125.63 59.0505 125.48L59.2605 125.84C59.1405 126.07 58.9205 126.265 58.6005 126.425C58.2805 126.575 57.9455 126.65 57.5955 126.65C57.1555 126.65 56.8255 126.51 56.6055 126.23C56.3955 125.95 56.2905 125.555 56.2905 125.045H56.2155C55.9555 125.535 55.5955 125.925 55.1355 126.215C54.6755 126.495 54.1655 126.635 53.6055 126.635C52.9755 126.635 52.4805 126.475 52.1205 126.155C51.7605 125.835 51.5805 125.405 51.5805 124.865C51.5805 124.625 51.6205 124.395 51.7005 124.175C51.7905 123.955 51.9305 123.745 52.1205 123.545C52.3105 123.345 52.5605 123.15 52.8705 122.96C53.1805 122.76 53.5605 122.56 54.0105 122.36L56.1705 121.415Z" fill="#878484"/>
</svg>
