<svg width="51" height="102" viewBox="0 0 51 102" fill="none" xmlns="http://www.w3.org/2000/svg">
<path d="M21.42 76.2C17.7 76.2 14.04 75.14 10.44 73.02L5.34 75.6H4.02V60.18H5.34L10.5 71.34C13.82 73.7 17.62 74.88 21.9 74.88C25.42 74.88 28.32 73.96 30.6 72.12C32.92 70.24 34.08 67.62 34.08 64.26C34.08 61.82 33.34 59.9 31.86 58.5C30.38 57.06 27.98 55.92 24.66 55.08L14.7 52.5C11.22 51.58 8.6 50.02 6.84 47.82C5.08 45.58 4.2 42.94 4.2 39.9C4.2 37.14 4.74 34.7 5.82 32.58C6.94 30.42 8.56 28.76 10.68 27.6C12.8 26.4 15.32 25.8 18.24 25.8C21.88 25.8 25.14 26.42 28.02 27.66L32.4 25.8H33.72V38.04H32.4L28.08 29.28C25.08 27.84 21.82 27.12 18.3 27.12C14.82 27.12 12.08 28.02 10.08 29.82C8.08 31.58 7.08 33.92 7.08 36.84C7.08 39 7.78 40.7 9.18 41.94C10.62 43.18 12.72 44.16 15.48 44.88L26.22 47.7C29.7 48.58 32.28 50.1 33.96 52.26C35.68 54.38 36.54 57.62 36.54 61.98C36.54 66.42 35.16 69.9 32.4 72.42C29.68 74.94 26.02 76.2 21.42 76.2Z" fill="white"/>
<path d="M32.72 45.9C29.45 45.9 26.585 45.105 24.125 43.515C21.665 41.925 19.76 39.705 18.41 36.855C17.09 34.005 16.43 30.72 16.43 27C16.43 23.28 17.135 19.995 18.545 17.145C19.955 14.295 21.92 12.075 24.44 10.485C26.99 8.895 29.9 8.1 33.17 8.1C36.26 8.1 38.87 8.88 41 10.44L43.745 8.1H44.69V19.26H43.745L40.775 11.835C38.615 10.035 36.08 9.135 33.17 9.135C31.07 9.135 29.18 9.675 27.5 10.755C25.85 11.835 24.545 13.41 23.585 15.48C22.655 17.55 22.19 20.01 22.19 22.86V31.095C22.19 33.945 22.625 36.405 23.495 38.475C24.395 40.545 25.625 42.135 27.185 43.245C28.775 44.325 30.62 44.865 32.72 44.865C35.3 44.865 37.295 44.07 38.705 42.48C40.145 40.89 40.865 38.76 40.865 36.09V31.905L36.68 31.275V30.285H50.135V31.275L45.95 31.905V36.09C45.95 37.8 45.485 39.405 44.555 40.905C43.625 42.375 42.17 43.575 40.19 44.505C38.21 45.435 35.72 45.9 32.72 45.9Z" fill="white"/>
<path d="M33.72 86.9C30.45 86.9 27.585 86.105 25.125 84.515C22.665 82.925 20.76 80.705 19.41 77.855C18.09 75.005 17.43 71.72 17.43 68C17.43 64.28 18.105 60.995 19.455 58.145C20.835 55.265 22.77 53.045 25.26 51.485C27.78 49.895 30.675 49.1 33.945 49.1C35.235 49.1 36.54 49.325 37.86 49.775C39.21 50.225 40.425 50.855 41.505 51.665L44.52 49.1H45.465V60.26H44.52L41.73 53.285C40.68 52.325 39.45 51.56 38.04 50.99C36.66 50.42 35.295 50.135 33.945 50.135C31.845 50.135 29.985 50.675 28.365 51.755C26.775 52.835 25.53 54.41 24.63 56.48C23.73 58.55 23.28 61.01 23.28 63.86V72.095C23.28 74.945 23.715 77.405 24.585 79.475C25.455 81.545 26.67 83.135 28.23 84.245C29.79 85.325 31.62 85.865 33.72 85.865C35.25 85.865 36.78 85.535 38.31 84.875C39.84 84.185 41.115 83.27 42.135 82.13L44.745 74.885H45.69V86.45H44.745L41.505 84.155C40.425 85.025 39.195 85.7 37.815 86.18C36.435 86.66 35.07 86.9 33.72 86.9Z" fill="white"/>
</svg>
